<svg xmlns="http://www.w3.org/2000/svg" width="27.002" height="27.052" viewBox="0 0 27.002 27.052">
  <path id="phone" d="M27.111,20.754v3.771a2.514,2.514,0,0,1-2.74,2.514A24.876,24.876,0,0,1,13.523,23.18a24.511,24.511,0,0,1-7.542-7.542A24.876,24.876,0,0,1,2.122,4.74,2.514,2.514,0,0,1,4.624,2H8.394a2.514,2.514,0,0,1,2.514,2.162,16.14,16.14,0,0,0,.88,3.532,2.514,2.514,0,0,1-.566,2.652l-1.6,1.6a20.112,20.112,0,0,0,7.542,7.542l1.6-1.6a2.514,2.514,0,0,1,2.652-.566,16.14,16.14,0,0,0,3.532.88,2.514,2.514,0,0,1,2.162,2.552Z" transform="translate(-1.111 -1)" fill="none" stroke="#acb4c4" stroke-linecap="round" stroke-linejoin="round" stroke-width="2"/>
</svg>
